# xmcd CD database file
#
# Track frame offsets:
#	150
#	23875
#	39197
#	62375
#	81200
#	102717
#	127167
#	145840
#	183940
#	220107
#	249312
#	284250
#
# Disc length: 4440 seconds
#
# Revision: 0
# Processed by: cddbd v1.5PL3 Copyright (c) Steve Scherf et al.
# Submitted via: CDex 1.50beta9
#
DISCID=a611560c
DTITLE=day after tomorrow - faraway
DYEAR=1900
DGENRE=Pop
TTITLE0=faraway(Original Mix)
TTITLE1=faraway(Dirt Devils 7" Mix)
TTITLE2=faraway(SPACEFROG 7" Xtended Termination)
TTITLE3=faraway(Jonathan Peters' Trance Mix-Radio)
TTITLE4=faraway(Hex Hector Main Radio Mix)
TTITLE5=faraway(Dirt Devils Dub Mix)
TTITLE6=faraway(SPACEFROG Dubmatic Termination)
TTITLE7=faraway(Jonathan Peters' SF Trance Dub Mix)
TTITLE8=faraway(Hex Hector the Dub)
TTITLE9=faraway(Dub's Pop Dub Remix)
TTITLE10=faraway(Instrumental)
TTITLE11=Data
EXTD=
EXTT0=
EXTT1=
EXTT2=
EXTT3=
EXTT4=
EXTT5=
EXTT6=
EXTT7=
EXTT8=
EXTT9=
EXTT10=
EXTT11=
PLAYORDER=
